<?xml version="1.0" encoding="UTF-8" standalone="no"?>
<svg xmlns="http://www.w3.org/2000/svg" height="180mm" width="190mm" version="1.1" viewBox="0 0 673.22835 637.79528">
<path d="m360.5 393.53 186.65 187.57c0.836 0.84026 1.8439 1.5065 3.0236 1.9977 2.3584 0.98136 4.72 0.98772 7.0838 0.017 1.1819-0.48484 2.1929-1.1458 3.0332-1.9818l54.327-54.058c0.853-0.84874 1.5256-1.8757 2.0178-3.0799 0.9835-2.4083 0.9591-4.806-0.076-7.1931-0.5167-1.1935-1.2106-2.2057-2.0816-3.0364l-191.24-182.44c28.999-28.711 58.006-57.413 86.932-86.196 1.5617-1.5542 3.4299-2.8358 5.4446-3.7482 2.6895-1.2179 5.641-1.7781 8.5914-1.9733 3.691-0.24401 7.3787 0.0817 11.035 0.50394 12.463 1.4418 25.426 0.0658 37.42-4.022 11.994-4.0877 23.017-10.888 32.057-19.718 9.039-8.8301 16.097-19.69 20.465-31.584 4.3689-11.894 6.0483-24.822 4.9004-37.315-0.1581-1.7219-0.8254-3.4342-1.8959-4.8261s-2.543-2.4613-4.1864-3.0586c-1.6444-0.59624-3.4607-0.71931-5.1741-0.33844-1.7134 0.38193-3.325 1.2678-4.5503 2.4868l-53.092 52.83c-0.8403 0.836-1.8513 1.497-3.0332 1.9818-2.3637 0.97075-4.7253 0.96438-7.0838-0.017-1.1797-0.49121-2.1876-1.1575-3.0236-1.9967l-42.366-42.577c-0.836-0.84025-1.4969-1.8513-1.9818-3.0332-0.9707-2.3637-0.9644-4.7243 0.017-7.0838 0.4912-1.1798 1.1575-2.1876 1.9977-3.0236l52.977-52.716c1.2265-1.2201 2.1219-2.8306 2.5112-4.545 0.3883-1.7145 0.2716-3.534-0.3204-5.1826-0.592-1.6476-1.6592-3.1255-3.0512-4.2013-1.3908-1.0747-3.1053-1.7473-4.8282-1.9086-12.468-1.1659-25.374 0.4838-37.256 4.8155-11.882 4.3307-22.741 11.343-31.585 20.338-8.8428 8.9935-15.671 19.97-19.8 31.924-4.1292 11.953-5.5614 24.886-4.1843 37.332 0.3989 3.6071 0.7023 7.2461 0.4434 10.884-0.2068 2.908-0.7734 5.816-1.9881 8.463-0.9092 1.9818-2.1824 3.8183-3.7228 5.3502-29.478 29.333-58.957 58.666-88.434 87.999l-131.48-125.43-57.813 57.568 128.11 128.74c-28.635 28.494-57.271 56.989-85.907 85.483-1.5404 1.533-3.3822 2.7966-5.3693 3.6962-2.6523 1.201-5.5624 1.7537-8.4715 1.9457-3.639 0.24083-7.2769-0.0806-10.882-0.49652-12.439-1.4386-25.378-0.0711-37.353 3.9986-11.974 4.0708-22.984 10.844-32.022 19.642-9.037 8.7993-16.104 19.623-20.494 31.484-4.389 11.861-6.1035 24.759-4.9991 37.232 0.1528 1.724 0.817 3.4416 1.8853 4.8378 1.0673 1.3972 2.5409 2.472 4.1864 3.0724 1.6455 0.59943 3.4639 0.72568 5.1805 0.3448 1.7166-0.37981 3.3302-1.2667 4.5577-2.4879l52.977-52.716c0.8403-0.83601 1.8513-1.497 3.0332-1.9818 2.3638-0.97074 4.7254-0.96438 7.0838 0.017 1.1797 0.4912 2.1876 1.1575 3.0236 1.9977l42.366 42.576c0.836 0.84025 1.4969 1.8513 1.9818 3.0332 0.9707 2.3637 0.9644 4.7254-0.017 7.0838-0.4912 1.1797-1.1575 2.1876-1.9966 3.0236l-53.093 52.83c-1.2254 1.219-2.1187 2.8263-2.5091 4.5376-0.3893 1.7113-0.2748 3.5286 0.313 5.1752 0.5888 1.6476 1.6519 3.1255 3.0385 4.2023 1.3855 1.0768 3.0958 1.7526 4.8155 1.9192 12.487 1.2094 25.424-0.40527 37.339-4.7147 11.915-4.3105 22.81-11.314 31.684-20.31 8.8746-8.9956 15.73-19.985 19.877-31.958 4.1461-11.973 5.5858-24.93 4.2066-37.399-0.4021-3.6379-0.7076-7.3087-0.453-10.977 0.2037-2.9334 0.7649-5.8658 1.9744-8.5426 0.906-2.0041 2.1759-3.8649 3.7174-5.4224 28.382-28.676 56.923-57.194 85.536-85.64zm-338.2-177.64c-0.8753 0.82221-1.5766 1.8248-2.1039 3.0098-1.0535 2.3701-1.1033 4.7604-0.1506 7.1718 0.4763 1.2063 1.1352 2.2386 1.9754 3.0958l64.518 65.863c0.8073 0.82328 1.7781 1.4842 2.9122 1.9818 2.2693 0.99514 4.5673 1.0694 6.8949 0.22279 1.1639-0.42225 2.176-1.0196 3.0343-1.7898l30.92-27.729c0.4806-0.43074 0.9145-0.9124 1.3028-1.446 0.7777-1.0662 1.3039-2.2449 1.5787-3.535 0.1379-0.64504 0.2058-1.2901 0.2058-1.9362v-24.235c0-0.60578 0.061-1.2116 0.1814-1.8174 0.2419-1.2116 0.7066-2.3298 1.3941-3.3557 0.3448-0.51349 0.731-0.98348 1.1606-1.411l146.72-146.11c0.4276-0.4244 0.8965-0.8074 1.4079-1.1479 1.0227-0.6811 2.1367-1.1405 3.3408-1.3803 0.6026-0.1188 1.2052-0.1793 1.8078-0.1793h47.596c1.8312 0 3.709-0.5739 5.2484-1.6242 1.5394-1.0493 2.7414-2.5749 3.413-4.3053 0.6726-1.7303 0.8137-3.6665 0.3851-5.4807-0.4286-1.8131-1.4269-3.5042-2.7785-4.7402l-25.795-23.575c-0.4202-0.3851-0.8774-0.7299-1.3697-1.0355-0.9856-0.6121-2.0486-1.0237-3.1881-1.2381-0.5707-0.106-1.1404-0.1591-1.7102-0.1591h-69.706c-0.5984 0-1.1967 0.058-1.7962 0.1761-1.1967 0.2366-2.3043 0.6907-3.3228 1.3633-0.5092 0.3363-0.9771 0.714-1.4036 1.1341l-145.58 143.5c-0.4265 0.42118-0.8943 0.79887-1.4036 1.1352-1.0185 0.67263-2.1261 1.1267-3.3239 1.3622-0.5983 0.11882-1.1967 0.17717-1.795 0.17717h-27.029c-0.5803 0-1.1606 0.0552-1.741 0.16657-1.1595 0.22067-2.2385 0.64716-3.2358 1.2805-0.4986 0.31616-0.9591 0.67263-1.3824 1.0694l-27.194 25.522zm81.7-80.15c-0.836-0.84026-1.4969-1.8513-1.9818-3.0332-0.9707-2.3637-0.9644-4.7243 0.018-7.0838 0.4901-1.1798 1.1564-2.1866 1.9966-3.0236l42.745-42.534c0.8275-0.8232 1.8195-1.4768 2.977-1.9606 2.3149-0.9686 4.6394-0.993 6.9745-0.073 1.167 0.4594 2.1728 1.0917 3.0173 1.897l8.1309 7.7574-56.386 55.582-7.4912-7.5283z"/>
</svg>
